400 0 1 0           
7 Unknown 11 ACIS 6.0 NT 24 Fri Dec 01 09:46:38 2000 
25.399999999999999 9.9999999999999995e-007 1e-010 
body $-1 $1 $-1 $-1 #
lump $-1 $-1 $2 $0 #
shell $-1 $-1 $-1 $3 $-1 $1 #
face $-1 $4 $5 $2 $-1 $6 forward single #
face $-1 $7 $8 $2 $-1 $9 forward single #
loop $-1 $-1 $10 $3 #
plane-surface $-1 0.37258749041164907 0.44089519294572765 0 1 0 0 0 0 -0.39370078740157477 forward_v I I I I #
face $-1 $11 $12 $2 $-1 $13 forward single #
loop $-1 $-1 $14 $4 #
plane-surface $-1 0.37258749041164907 -0.40984623569602852 0 0 -1 0 0 0 -0.39370078740157477 forward_v I I I I #
coedge $-1 $15 $16 $17 $18 forward $5 $-1 #
face $-1 $19 $20 $2 $-1 $21 forward single #
loop $-1 $-1 $22 $7 #
plane-surface $-1 -0.39121686493223157 -0.40984623569602852 0 -1 0 0 0 0 0.39370078740157477 forward_v I I I I #
coedge $-1 $23 $24 $25 $26 forward $8 $-1 #
coedge $-1 $27 $10 $24 $28 reversed $5 $-1 #
coedge $-1 $10 $27 $29 $30 forward $5 $-1 #
coedge $-1 $31 $25 $10 $18 reversed $32 $-1 #
edge $-1 $33 $34 $10 $35 forward #
face $-1 $36 $32 $2 $-1 $37 forward single #
loop $-1 $-1 $38 $11 #
plane-surface $-1 -0.39121686493223157 0.44089519294572765 0 0 1 0 0 0 0.39370078740157477 forward_v I I I I #
coedge $-1 $39 $40 $41 $42 forward $12 $-1 #
coedge $-1 $43 $14 $40 $44 reversed $8 $-1 #
coedge $-1 $14 $43 $15 $28 forward $8 $-1 #
coedge $-1 $17 $41 $14 $26 reversed $32 $-1 #
edge $-1 $34 $45 $14 $46 forward #
coedge $-1 $16 $15 $47 $48 reversed $5 $-1 #
edge $-1 $49 $34 $24 $50 forward #
coedge $-1 $51 $38 $16 $30 reversed $20 $-1 #
edge $-1 $52 $33 $16 $53 forward #
coedge $-1 $41 $17 $38 $54 reversed $32 $-1 #
loop $-1 $-1 $17 $19 #
vertex $-1 $30 $55 #
vertex $-1 $28 $56 #
straight-curve $-1 0.37258749041164907 0.44089519294572765 0.99999999999999989 0 -0.39370078740157477 0 F 0 F 2.1608832287500608 #
face $-1 $-1 $57 $2 $-1 $58 reversed single #
plane-surface $-1 -0.0093146872602912472 0.015524478624849562 0.99999999999999989 0 0 1 0.39370078740157477 0 0 forward_v I I I I #
coedge $-1 $29 $59 $31 $54 forward $20 $-1 #
coedge $-1 $60 $22 $59 $61 reversed $12 $-1 #
coedge $-1 $22 $60 $23 $44 forward $12 $-1 #
coedge $-1 $25 $31 $22 $42 reversed $32 $-1 #
edge $-1 $45 $62 $22 $63 forward #
coedge $-1 $24 $23 $64 $65 reversed $8 $-1 #
edge $-1 $66 $45 $40 $67 forward #
vertex $-1 $44 $68 #
straight-curve $-1 0.37258749041164907 -0.40984623569602852 0.99999999999999989 -0.39370078740157477 0 0 F 0 F 1.940063062573457 #
coedge $-1 $64 $69 $27 $48 forward $57 $-1 #
edge $-1 $52 $49 $47 $70 forward #
vertex $-1 $48 $71 #
straight-curve $-1 0.37258749041164907 -0.40984623569602852 0 0 0 0.39370078740157477 I I #
coedge $-1 $59 $29 $69 $72 reversed $20 $-1 #
vertex $-1 $72 $73 #
straight-curve $-1 0.37258749041164907 0.44089519294572765 0 0 0 0.39370078740157477 I I #
edge $-1 $62 $33 $38 $74 forward #
point $-1 0.37258749041164907 0.44089519294572765 0.99999999999999989 #
point $-1 0.37258749041164907 -0.40984623569602852 0.99999999999999989 #
loop $-1 $-1 $69 $36 #
plane-surface $-1 -0.0093146872602912472 0.015524478624849552 0 0 0 1 0.39370078740157477 0 0 forward_v I I I I #
coedge $-1 $38 $51 $39 $61 forward $20 $-1 #
coedge $-1 $40 $39 $75 $76 reversed $12 $-1 #
edge $-1 $77 $62 $59 $78 forward #
vertex $-1 $61 $79 #
straight-curve $-1 -0.39121686493223157 -0.40984623569602852 0.99999999999999989 0 0.39370078740157477 0 F 0 F 2.1608832287500608 #
coedge $-1 $75 $47 $43 $65 forward $57 $-1 #
edge $-1 $49 $66 $64 $80 forward #
vertex $-1 $65 $81 #
straight-curve $-1 -0.39121686493223157 -0.40984623569602852 0 0 0 0.39370078740157477 I I #
point $-1 -0.39121686493223157 -0.40984623569602852 0.99999999999999989 #
coedge $-1 $47 $75 $51 $72 forward $57 $-1 #
straight-curve $-1 0.37258749041164907 0.44089519294572765 0 0 -0.39370078740157477 0 F 0 F 2.1608832287500608 #
point $-1 0.37258749041164907 -0.40984623569602852 0 #
edge $-1 $77 $52 $69 $82 forward #
point $-1 0.37258749041164907 0.44089519294572765 0 #
straight-curve $-1 -0.39121686493223157 0.44089519294572765 0.99999999999999989 0.39370078740157477 0 0 F 0 F 1.940063062573457 #
coedge $-1 $69 $64 $60 $76 forward $57 $-1 #
edge $-1 $66 $77 $75 $83 forward #
vertex $-1 $72 $84 #
straight-curve $-1 -0.39121686493223157 0.44089519294572765 0 0 0 0.39370078740157477 I I #
point $-1 -0.39121686493223157 0.44089519294572765 0.99999999999999989 #
straight-curve $-1 0.37258749041164907 -0.40984623569602852 0 -0.39370078740157477 0 0 F 0 F 1.940063062573457 #
point $-1 -0.39121686493223157 -0.40984623569602852 0 #
straight-curve $-1 -0.39121686493223157 0.44089519294572765 0 0.39370078740157477 0 0 F 0 F 1.940063062573457 #
straight-curve $-1 -0.39121686493223157 -0.40984623569602852 0 0 0.39370078740157477 0 F 0 F 2.1608832287500608 #
point $-1 -0.39121686493223157 0.44089519294572765 0 #
End-of-ACIS-data 