400 0 1 0           
7 Unknown 11 ACIS 6.0 NT 24 Fri Dec 01 10:33:18 2000 
25.399999999999999 9.9999999999999995e-007 1e-010 
body $-1 $1 $-1 $-1 #
lump $-1 $-1 $2 $0 #
shell $-1 $-1 $-1 $3 $-1 $1 #
face $-1 $4 $5 $2 $-1 $6 forward single #
face $-1 $7 $8 $2 $-1 $9 forward single #
loop $-1 $10 $11 $3 #
cone-surface $-1 0 0 0 0 0 1 -0.40819638623053861 0 0 1 I I 0 1 0.40819638623053861 forward I I I I #
face $-1 $-1 $12 $2 $-1 $13 reversed single #
loop $-1 $-1 $14 $4 #
plane-surface $-1 0.037108762384594408 7.9471941633869465e-018 1.9999999999999998 0 0 1 0.39370078740157477 0 0 forward_v I I I I #
loop $-1 $-1 $15 $3 #
coedge $-1 $11 $11 $14 $16 forward $5 $-1 #
loop $-1 $-1 $17 $7 #
plane-surface $-1 0.037108762384594408 7.9471941633869465e-018 0 0 0 1 0.39370078740157477 0 0 forward_v I I I I #
coedge $-1 $14 $14 $11 $16 reversed $8 $-1 #
coedge $-1 $15 $15 $17 $18 reversed $10 $-1 #
edge $-1 $19 $19 $11 $20 forward #
coedge $-1 $17 $17 $15 $18 forward $12 $-1 #
edge $-1 $21 $21 $17 $22 forward #
vertex $-1 $16 $23 #
ellipse-curve $-1 0 0 1.9999999999999998 0 0 -1 -0.40819638623053861 0 0 1 I I #
vertex $-1 $18 $24 #
ellipse-curve $-1 0 0 0 0 0 -1 -0.40819638623053861 0 0 1 I I #
point $-1 0.40819638623053861 4.9987988818525079e-017 1.9999999999999998 #
point $-1 0.40819638623053861 4.9987988818525079e-017 0 #
End-of-ACIS-data 